<svg xmlns="http://www.w3.org/2000/svg" viewBox="0 0 372 372">
<title>Vuepoint</title>
<path id="Center" d="M126.48,151.6a233.13,233.13,0,0,0-47.54,28.57,2.49,2.49,0,0,0-1.08,3.21c2.37,8.32,7,15.38,12,22.14,10.36,14,23.46,24.8,37.68,34.31A183.37,183.37,0,0,0,148.6,252c.58.29,1.37.35,1.48,1.46a63.43,63.43,0,0,1-10.72-3.3,164.74,164.74,0,0,1-64-42.32A160.13,160.13,0,0,1,63.69,193.3c-1-1.39-1.65-1.33-2.65-.23a18.06,18.06,0,0,1-1.73,1.66c-.72.6-1.34,1.8-2.45,1.12-1.28-.78-1-2.1-.53-3.27,2.48-6.82,6.55-12.7,10.66-18.49,17.79-25.07,40.25-44.21,68.88-54.68,35.74-13.06,71.48-12.26,106.29,3.47,30,13.57,53.57,35.26,71,63.84a63.83,63.83,0,0,1,3.1,6.19c.48,1,.87,2.17-.22,3s-1.81-.07-2.6-.65c-1.81-1.33-3.55-4.08-5.44-3.59-1.55.39-2.44,3.42-3.67,5.26-19.82,29.56-46.62,48.56-80.87,56.18-3.15.7-6.39,1-9.6,1.4-.36,0-.8,0-.92-.83a131,131,0,0,0,18.9-7.67c15.46-7.77,29.53-17.53,41.09-30.73,7.64-8.73,13.76-18.43,16.7-30,1-3.76.29-6.19-3-8.56-14.34-10.27-29.36-19.23-45.56-26-.91-.38-1.84-.7-2.78-1-.14-.05-.34.06-.84.18,4.92,7.49,8.51,15.47,9.82,24.38-1.27-.1-2.54-.17-3.81-.31-6.56-.74-13.13-1.47-19.69-2.26-1.66-.2-2.52-.1-2.19,2.13a42.69,42.69,0,0,1,.16,7.59c-.68,18.44-15.91,34.59-33.62,35.51-15.27.8-26.77-6.2-34.63-19.18-7.6-12.56-8.41-26-2-39.45A36.73,36.73,0,0,1,161,146.13a58.34,58.34,0,0,1,10-6.83,54.34,54.34,0,0,0-8.46,1C150.1,142.78,137.81,145.59,126.48,151.6Zm66.35,6.09c0,8,6.95,15.32,14.63,15.3a12.8,12.8,0,0,0,13.13-12.71c.14-7.8-7.3-15.66-14.82-15.68A13.31,13.31,0,0,0,192.83,157.69Z" style="fill:#171c1e"/>
<path id="Seg-SE" d="M160.91,370.07c6-4.16,11.44-7.81,16.76-11.59a347.71,347.71,0,0,0,67.21-62.43c14.79-17.91,27.84-37.05,37.53-58.44a5.54,5.54,0,0,1,1.42-1.89A143.86,143.86,0,0,0,309,207.21c1-1.54,1.91-2.27,3.83-1.66a6.84,6.84,0,0,0,4.08,0c2.49-.89,3.43.4,4.57,2.31,11.88,19.74,21.06,40.78,28.58,62.62a6.29,6.29,0,0,1-.32,5.67c-16.89,30.4-40,54.38-69.77,71.41a182.58,182.58,0,0,1-67.61,22.73A184.92,184.92,0,0,1,160.91,370.07Z" style="fill:#558cc9"/>
<path id="Seg-N" d="M255.34,14.52C197,50.53,140.92,89.86,89.74,137.73c.31-5,.45-9.3.86-13.54A573.92,573.92,0,0,1,110.53,18.38a6,6,0,0,1,3.86-4.4,183.38,183.38,0,0,1,139.23-.56A13.53,13.53,0,0,1,255,14C255.11,14.1,255.19,14.32,255.34,14.52Z" style="fill:#de8c2c"/>
<path id="Seg-NE" d="M164,87.48c4-3.06,8-6.19,12-9.16a1002.07,1002.07,0,0,1,86.27-57.07c2.89-1.68,5.14-2,8.28-.29,40.25,21.89,70,53.73,87.84,97,.3.75.55,1.52.78,2.29,0,.16-.09.37-.21.83-5.53-2-11-4.12-16.55-6.14a512.55,512.55,0,0,0-88.6-23.69A364.63,364.63,0,0,0,195.27,86a196.87,196.87,0,0,0-30.94,2.2Z" style="fill:#f3cc31"/>
<path id="Seg-W" d="M164.37,276.35c-7.88.66-15.4,1.39-22.93,1.91a380.17,380.17,0,0,1-52.07-.07A416.33,416.33,0,0,1,21,268a3.78,3.78,0,0,1-2.66-2.48A179.6,179.6,0,0,1,1.67,210.36a187.41,187.41,0,0,1,2.6-64.64C45.74,204.82,99,247.92,164.37,276.35Z" style="fill:#743d93"/>
<path id="Seg-NW" d="M52.72,190.16c-17.11-16.68-31.3-35.47-44.66-55-.85-1.25-.52-2.21-.18-3.38A185.72,185.72,0,0,1,32.62,80.22,181.51,181.51,0,0,1,98.3,21.54c.5-.26.94-.79,1.8-.47-1.68,6.81-3.42,13.63-5,20.47a590.77,590.77,0,0,0-13,78.46c-.85,8.68-1.41,17.38-1.6,26.1,0,2-1.17,3.16-2.19,4.45a226.66,226.66,0,0,0-20.94,30.54C55.74,184,54.33,187,52.72,190.16Z" style="fill:#ce2630"/>
<path id="Seg-E" d="M356.69,262.17c-2.65-6.67-4.88-12.84-7.52-18.82-16.6-37.59-36.9-72.81-64.08-103.45-14.28-16.1-30-30.47-48.5-41.49a5.44,5.44,0,0,1-.59-.7,91.85,91.85,0,0,1,14.33,1.81c37.91,6.8,74.84,17.13,110.38,32.46a5.94,5.94,0,0,1,3.87,4.31c9.77,35,10.13,69.94-.36,104.87A175,175,0,0,1,356.69,262.17Z" style="fill:#8fbf4d"/>
<path id="Iris" d="M126.48,151.6c11.33-6,23.62-8.82,36-11.32a54.34,54.34,0,0,1,8.46-1,58.34,58.34,0,0,0-10,6.83,36.73,36.73,0,0,0-9.44,12.18c-6.43,13.48-5.62,26.89,2,39.45,7.86,13,19.36,20,34.63,19.18,17.71-.92,32.94-17.07,33.62-35.51a42.69,42.69,0,0,0-.16-7.59c-.33-2.23.53-2.33,2.19-2.13,6.56.79,13.13,1.52,19.69,2.26,1.27.14,2.54.21,3.81.31,6.29,32.79-15.16,65.73-47.59,73.07-28,6.34-57-7.31-70.94-33.42-10.66-20-12-40.34-2.44-61.16A4,4,0,0,0,126.48,151.6Z" style="fill:#258ccb"/>
<path d="M254.67,269.51c3.59-4.82,9.11-13.41,9.57-16.18-1.51.79-9.75,5.24-14.52,7.81a207.37,207.37,0,0,1-20,9,252.77,252.77,0,0,1-27.8,8.49,342,342,0,0,1-54,8.33,463.42,463.42,0,0,1-64.65-.06c-12.9-.91-25.71-2.52-38.46-4.64-6.3-1-12.58-2.27-18.92-3.43,0,.41-.07.65,0,.8.38.71.78,1.4,1.2,2.09A184.32,184.32,0,0,0,73,332.77a192.29,192.29,0,0,0,71.93,34,5.06,5.06,0,0,0,4.15-.57c11.84-6.93,23-14.95,34-23.15,8-5.93,15.32-12.63,22.82-19.17,7.05-6.15,22.7-22.76,26.42-27.21S244.46,283.22,254.67,269.51Z" style="fill:#4857a2"/>
</svg>
