<svg xmlns="http://www.w3.org/2000/svg" xmlns:xlink="http://www.w3.org/1999/xlink" viewBox="0 0 300 301">
	<defs>
		<clipPath id="clip-path">
			<circle cx="150" cy="150" r="150" style="fill:none"/>
		</clipPath>
	</defs>
	<g style="clip-path:url(#clip-path)">
		<polygon points="300 301 0 301 0 74.04 300 112.85 300 301" style="fill:#7abd53"/>
		<path d="M300,154.74s-16.3,27.6-56,27.6c-68.55,0-136.87-75.49-185.38-75.49C17.74,106.85,0,127.94,0,127.94V0H300Z" style="fill:#b6dbaa"/>
		<path d="M103.14,300c-6.16,0-10.34,0-14.81-17.12-2-9.72-3.94-19.36-3.39-29.35,2.21-40.41,23-68.85,56.4-89.39,12.34-7.59,24.81-15.15,30.33-29.85,4.58-12.18-1.62-21.44-14.5-21.48-8.27,0-15.88,2.61-23.18,6.16-21.17,10.33-42.22,20.9-63.43,31.14-9.42,4.55-18.37,10.11-28.39,13.37a1.37,1.37,0,0,1,0-1.14c7.18-10.86,17.46-18.75,26.51-27.79q23.34-23.3,47.21-46c7.16-6.84,11.54-15.93,19-22.51A50.06,50.06,0,0,1,165,53.28h4.55A82.93,82.93,0,0,1,192.89,59c16,6.32,29.53,17.42,45.27,24.31,7.82,3.43,15.52,7.23,24.18,8.15,1,.08,1,.59,0,.77-4,.36-8,1.26-12,1-9.83-.7-19.37-3.08-28.8-5.91a5.86,5.86,0,0,0-1.62,0,6.46,6.46,0,0,0,.34,1.41A81.54,81.54,0,0,1,228.54,118c1.58,17.77-2.78,34.2-12.16,49.42-9.13,14.8-23.55,24.4-35,36.92-10.09,11-17.45,23.44-19,38.72a9.06,9.06,0,0,0,.26,2.92,3,3,0,0,0,1.21-.8c9.75-11.72,22.8-16.18,37.38-16.5,21.3-.46,55.71,10.28,82.14,45.9,0,0,10.55,25.38-14.3,25.38Z" style="fill:#1f4724"/>
	</g>
</svg>