<?xml version="1.0" encoding="utf-8"?>
<!-- Generator: Adobe Illustrator 24.0.1, SVG Export Plug-In . SVG Version: 6.00 Build 0)  -->
<svg version="1.1" id="Layer_1" xmlns="http://www.w3.org/2000/svg" xmlns:xlink="http://www.w3.org/1999/xlink" x="0px" y="0px"
	 viewBox="0 0 222 420.5" style="enable-background:new 0 0 222 420.5;" xml:space="preserve">
<style type="text/css">
	.st0{fill:#EDEDDD;}
	.st1{fill:#0F2C18;}
</style>
<g id="Layer_2_1_">
	<path class="st0" d="M210,420.5H12c-6.6,0-12-5.4-12-12V12C0,5.4,5.4,0,12,0h198c6.6,0,12,5.4,12,12v396.5
		C222,415.1,216.6,420.5,210,420.5z"/>
</g>
<g id="Layer_1_1_">
	<path class="st1" d="M129.9,321.5H79.8v-48.7c0-0.8-0.1-1.5-0.4-2.3c-3.2-6.7-6.4-13.4-9.9-20.4c-2.1,4-4,7.8-6,11.6
		c-5.1,9.9-11.3,19-19.4,26.7c-6.6,6.3-14.2,11.2-22.6,15.8c0.3-6.9,0.5-13.5,0.8-20.1c0.4-7.8,0.6-15.6,1.2-23.3
		c0.7-9.3,1.7-18.6,2.7-27.9c1.2-11.6,3.5-23,6.7-34.3c4.1-14.5,9.8-28.2,18.8-40.4c7-9.4,14.9-17.9,25.6-23.2
		c9.2-4.6,18.7-6.4,28.9-4.4c0.8,0.1,1.6,0.1,2.3,0c-1.6-2.3-2.7-4.5-4.3-6.2c-3.4-3.4-6.9-6.6-10.6-9.6
		c-11.9-9.9-16.5-22.6-16-37.7c0.5-16.2,12.4-28.9,24.6-33c12.4-4.2,24.1-1.8,33.7,6.7c3.8,3.3,8.3,5.6,13.1,6.7
		c16.7,4.3,33.4,8.5,50.7,13c-1.3,0.6-2.3,1.4-3.3,1.6c-6.9,0.9-13.9,1.5-20.8,2.4c-8.5,1.1-16.9,2.2-25.3,3.5
		c-6.8,1-13.7,2.2-20.5,3.6c-2.7,0.6-5.2,1.6-7.6,3c-4.1,2.4-5,6.2-1.9,9.9c2.1,2.5,4.8,4.4,7.3,6.5c10.4,8.7,17,21.1,18.4,34.6
		c2.8,23.6-5.3,43.9-18.4,62.8c-7,10.3-15.5,19.5-25.2,27.3c-8.4,6.7-11.9,15.8-13.5,25.7c-1,6.2-0.5,12.7-0.6,19.1
		c0.1,0.7,0.3,1.4,0.6,2c6.6,12.7,13.2,25.3,19.8,37.9c0.6,0.9,1.5,1.6,2.6,1.9C118.4,313.7,124.6,316.4,129.9,321.5z M33.9,251.1
		c1-0.7,1.7-1.1,2.3-1.7c12.5-10.2,25.2-20.2,37.6-30.7c9.6-8.2,18.6-17.2,25.9-27.6c7-10,12-20.7,12.8-33.1
		c0.9-13.2-6.9-19.5-17.9-18.3c-9.2,1-16.9,5.5-23.6,11.6c-11.2,10.3-18.9,22.9-24.4,36.9C38.7,208.4,36.2,229.6,33.9,251.1z
		 M169,69.7c-0.5-0.1-1.5-0.3-2.6-0.5c-10.3-2-20.7-4-31-6c-2.1-0.4-3.3-1.7-4.7-3.2c-1.9-2-3.9-4.3-6.3-5.4
		c-11.8-5.6-22.7-2.7-31.2,8.2c-7.5,9.6-7.4,25.3-0.4,36.4c3.3,5.2,7.9,9.2,12.6,12.9c11.3,8.9,16.4,20.8,17.1,34.9
		c0.5,10.2-0.8,20.3-4.6,29.8c-4.5,11.2-9.6,22.1-14.5,33.1l-1,2.3c10.2-9.4,18.7-20.5,25.1-32.8c7.4-14.6,11.2-29.9,8.2-46.3
		c-1.7-9.5-6-17.6-13.5-23.8c-2.9-2.4-6-4.6-8.8-7.1c-4.3-3.9-7-8.7-4.9-14.7c2-5.8,6.5-9.2,12.3-10.6c4.4-1,8.9-1.4,13.4-2
		L169,69.7z M30.5,288.6c6.9-5.5,13-11.2,17-18.6c5.2-9.3,9.8-18.9,14.6-28.3l-0.3-0.3c-1.3,1.1-2.6,2.3-4,3.3
		c-7.7,6.2-15.5,12.2-23.2,18.5c-0.9,0.9-1.5,2.1-1.7,3.3c-0.6,3.4-0.9,6.8-1.3,10.3C31.3,280.6,30.9,284.4,30.5,288.6L30.5,288.6z
		 M91.9,215.4c-6.3,5.6-12.5,11.2-18.7,16.9c-0.4,0.6-0.5,1.3-0.3,2c2.1,5.1,4.2,10.2,6.2,14.9L91.9,215.4L91.9,215.4z M88.6,290.2
		v22h11.8l-11.6-22H88.6z"/>
	<circle class="st1" cx="119.2" cy="64.9" r="5.2"/>
	<path class="st1" d="M41.4,379.4h-4.5v-33.7h4.5V379.4z M52.6,345.6h5.3l-11.8,15.8l12.5,17.9H53l-12.1-17.7L52.6,345.6z
		 M65.9,378.7c-1.6-0.7-3-1.7-4-3.1c-1.2-1.6-2-3.4-2.4-5.3c-0.6-2.6-0.9-5.2-0.8-7.8c0-2.6,0.3-5.3,0.9-7.8
		c0.5-1.9,1.3-3.7,2.5-5.3c1-1.4,2.4-2.4,4-3.1c1.7-0.7,3.5-1,5.3-1c1.9,0,3.8,0.3,5.6,1c1.6,0.7,3,1.8,4,3.2c1.2,1.6,2,3.5,2.4,5.4
		c0.6,2.5,0.8,5.1,0.8,7.7c0.1,2.7-0.2,5.4-0.9,8c-0.5,1.9-1.3,3.8-2.5,5.3c-1,1.3-2.4,2.4-4,3c-1.7,0.7-3.5,1-5.4,0.9
		C69.5,379.8,67.7,379.4,65.9,378.7z M74.9,374.9c1-0.5,1.8-1.2,2.4-2.2c0.8-1.2,1.3-2.6,1.5-4c0.3-2.1,0.5-4.1,0.5-6.2
		s-0.1-4.3-0.5-6.4c-0.2-1.4-0.8-2.8-1.5-4c-0.6-0.9-1.5-1.6-2.5-2.1c-1.1-0.4-2.3-0.6-3.5-0.6c-1.1,0-2.2,0.2-3.2,0.6
		s-1.9,1.2-2.5,2.1c-0.8,1.2-1.3,2.6-1.6,4c-0.4,2.1-0.6,4.2-0.5,6.4c0,2.1,0.1,4.2,0.5,6.3c0.3,1.4,0.8,2.8,1.6,4
		c0.6,0.9,1.5,1.7,2.6,2.1s2.2,0.6,3.4,0.6C72.7,375.6,73.9,375.4,74.9,374.9z M77.9,341.3h-13v-3.4h13V341.3z M98.2,379.4h-4.5
		v-29.5h-8.1v-4.2h20.7v4.2h-8.1C98.2,349.9,98.2,379.4,98.2,379.4z M126.7,345.6h4.5v21.2c0,2-0.2,4-0.6,6c-0.3,1.5-1,2.8-1.9,4
		c-0.9,1-2,1.8-3.3,2.2c-1.5,0.5-3.1,0.7-4.7,0.7c-1.5,0-3.1-0.2-4.6-0.7c-1.3-0.4-2.4-1.1-3.4-2.1c-1-1.1-1.7-2.5-2-4
		c-0.5-2-0.7-4.1-0.7-6.1v-21.2h4.5v20.9c0,1.4,0.1,2.8,0.3,4.2c0.1,1,0.5,1.9,1,2.8c0.4,0.7,1.1,1.3,1.9,1.6
		c0.9,0.4,1.9,0.5,2.9,0.5c1.1,0,2.1-0.1,3.1-0.5c0.8-0.3,1.4-0.9,1.8-1.6c0.5-0.9,0.8-1.8,0.9-2.8c0.2-1.4,0.3-2.8,0.3-4.1
		L126.7,345.6L126.7,345.6z M141.7,379.4h-4.5v-33.7h4.5V379.4z M153,345.6h5.3l-11.7,15.8l12.5,17.9h-5.6l-12.1-17.7L153,345.6z
		 M178.1,345.6h4.5v21.2c0,2-0.2,4-0.6,6c-0.3,1.5-1,2.8-1.9,4c-0.9,1-2,1.8-3.3,2.2c-1.5,0.5-3.1,0.7-4.7,0.7
		c-1.5,0-3.1-0.2-4.5-0.7c-1.3-0.4-2.5-1.1-3.4-2.1c-1-1.1-1.7-2.5-2-4c-0.5-2-0.7-4.1-0.7-6.1v-21.2h4.5v20.9
		c0,1.4,0.1,2.8,0.3,4.2c0.2,1,0.5,1.9,1,2.8c0.4,0.7,1.1,1.3,1.9,1.6c0.9,0.4,1.9,0.5,2.9,0.5c1.1,0,2.1-0.1,3.1-0.5
		c0.8-0.3,1.4-0.9,1.8-1.6c0.5-0.9,0.8-1.8,0.9-2.8c0.2-1.4,0.3-2.8,0.3-4.1L178.1,345.6z"/>
</g>
</svg>
